<mxfile host="drawio-plugin" modified="2021-12-28T00:52:14.222Z" agent="5.0 (Windows NT 6.2; Win64; x64) AppleWebKit/537.36 (KHTML, like Gecko) Chrome/89.0.4389.114 Safari/537.36" etag="Nj9CgQkV03l6tFZry8zs" version="14.7.4" type="embed"><diagram id="23iRSUPoRavnBvh4doch" name="Page-1"><mxGraphModel dx="1726" dy="759" grid="1" gridSize="10" guides="1" tooltips="1" connect="1" arrows="1" fold="1" page="0" pageScale="1" pageWidth="827" pageHeight="1169" math="0" shadow="0"><root><mxCell id="0"/><mxCell id="1" parent="0"/><mxCell id="5" value="00" style="edgeStyle=orthogonalEdgeStyle;rounded=0;orthogonalLoop=1;jettySize=auto;html=1;" parent="1" source="2" target="4" edge="1"><mxGeometry relative="1" as="geometry"><mxPoint as="offset"/></mxGeometry></mxCell><mxCell id="2" value="/subs" style="rounded=1;whiteSpace=wrap;html=1;" parent="1" vertex="1"><mxGeometry x="-670" y="30" width="80" height="40" as="geometry"/></mxCell><mxCell id="7" value="11" style="edgeStyle=orthogonalEdgeStyle;rounded=1;orthogonalLoop=1;jettySize=auto;html=1;exitX=0.75;exitY=1;exitDx=0;exitDy=0;" parent="1" source="4" target="6" edge="1"><mxGeometry relative="1" as="geometry"/></mxCell><mxCell id="10" value="00" style="edgeStyle=orthogonalEdgeStyle;orthogonalLoop=1;jettySize=auto;html=1;entryX=0;entryY=0.5;entryDx=0;entryDy=0;rounded=1;" parent="1" target="9" edge="1"><mxGeometry x="0.8333" relative="1" as="geometry"><mxPoint x="-260" y="50" as="sourcePoint"/><Array as="points"><mxPoint x="-230" y="50"/><mxPoint x="-230" y="240"/></Array><mxPoint as="offset"/></mxGeometry></mxCell><mxCell id="57" value="12" style="edgeStyle=orthogonalEdgeStyle;rounded=1;orthogonalLoop=1;jettySize=auto;html=1;entryX=0;entryY=0.5;entryDx=0;entryDy=0;endArrow=classic;endFill=1;strokeColor=#f0f0f0;" parent="1" target="52" edge="1"><mxGeometry x="0.942" relative="1" as="geometry"><mxPoint x="-280" y="50" as="sourcePoint"/><Array as="points"><mxPoint x="-260" y="50"/><mxPoint x="-260" y="730"/></Array><mxPoint as="offset"/></mxGeometry></mxCell><mxCell id="58" value="03" style="edgeStyle=orthogonalEdgeStyle;rounded=1;orthogonalLoop=1;jettySize=auto;html=1;entryX=0;entryY=0.5;entryDx=0;entryDy=0;endArrow=classic;endFill=1;strokeColor=#f0f0f0;" parent="1" target="37" edge="1"><mxGeometry x="-0.2695" relative="1" as="geometry"><mxPoint x="-280" y="50" as="sourcePoint"/><Array as="points"><mxPoint x="-250" y="50"/><mxPoint x="-250" y="630"/><mxPoint x="200" y="630"/><mxPoint x="200" y="50"/></Array><mxPoint as="offset"/></mxGeometry></mxCell><mxCell id="114" value="01" style="edgeStyle=orthogonalEdgeStyle;rounded=1;orthogonalLoop=1;jettySize=auto;html=1;entryX=0;entryY=0.5;entryDx=0;entryDy=0;endArrow=classic;endFill=1;strokeColor=#f0f0f0;" parent="1" target="23" edge="1"><mxGeometry x="0.4063" relative="1" as="geometry"><Array as="points"><mxPoint x="-240" y="50"/><mxPoint x="-240" y="460"/></Array><mxPoint as="offset"/><mxPoint x="-280" y="50" as="sourcePoint"/></mxGeometry></mxCell><mxCell id="117" value="12" style="edgeStyle=orthogonalEdgeStyle;rounded=1;orthogonalLoop=1;jettySize=auto;html=1;exitX=0.25;exitY=1;exitDx=0;exitDy=0;entryX=0.5;entryY=0;entryDx=0;entryDy=0;" edge="1" parent="1" source="4" target="116"><mxGeometry relative="1" as="geometry"/></mxCell><mxCell id="4" value="/subs/add" style="rounded=1;whiteSpace=wrap;html=1;" parent="1" vertex="1"><mxGeometry x="-470" y="30" width="80" height="40" as="geometry"/></mxCell><mxCell id="28" value="11" style="edgeStyle=orthogonalEdgeStyle;orthogonalLoop=1;jettySize=auto;html=1;exitX=1;exitY=0.25;exitDx=0;exitDy=0;endArrow=none;endFill=0;rounded=1;" parent="1" source="6" edge="1"><mxGeometry x="-0.0899" relative="1" as="geometry"><mxPoint x="-290" y="50" as="targetPoint"/><Array as="points"><mxPoint x="-310" y="120"/><mxPoint x="-310" y="50"/></Array><mxPoint as="offset"/></mxGeometry></mxCell><mxCell id="123" value="12" style="edgeStyle=orthogonalEdgeStyle;rounded=1;orthogonalLoop=1;jettySize=auto;html=1;exitX=1;exitY=0.5;exitDx=0;exitDy=0;entryX=0;entryY=0.5;entryDx=0;entryDy=0;" edge="1" parent="1" source="6" target="116"><mxGeometry x="0.05" relative="1" as="geometry"><Array as="points"><mxPoint x="-300" y="130"/><mxPoint x="-300" y="180"/><mxPoint x="-550" y="180"/><mxPoint x="-550" y="130"/></Array><mxPoint as="offset"/></mxGeometry></mxCell><mxCell id="6" value="discover feeds" style="rounded=1;whiteSpace=wrap;html=1;" parent="1" vertex="1"><mxGeometry x="-410" y="110" width="80" height="40" as="geometry"/></mxCell><mxCell id="8" value="12" style="edgeStyle=orthogonalEdgeStyle;orthogonalLoop=1;jettySize=auto;html=1;exitX=1;exitY=0.75;exitDx=0;exitDy=0;entryX=0.75;entryY=1;entryDx=0;entryDy=0;rounded=1;" parent="1" source="6" target="6" edge="1"><mxGeometry x="-0.2727" relative="1" as="geometry"><Array as="points"><mxPoint x="-310" y="140"/><mxPoint x="-310" y="170"/><mxPoint x="-350" y="170"/></Array><mxPoint as="offset"/></mxGeometry></mxCell><mxCell id="15" value="10" style="edgeStyle=orthogonalEdgeStyle;orthogonalLoop=1;jettySize=auto;html=1;entryX=0;entryY=0.5;entryDx=0;entryDy=0;rounded=1;" parent="1" source="9" target="14" edge="1"><mxGeometry x="0.75" relative="1" as="geometry"><Array as="points"><mxPoint x="-70" y="240"/><mxPoint x="-70" y="350"/></Array><mxPoint as="offset"/></mxGeometry></mxCell><mxCell id="25" value="00" style="edgeStyle=orthogonalEdgeStyle;orthogonalLoop=1;jettySize=auto;html=1;exitX=1;exitY=0.5;exitDx=0;exitDy=0;entryX=0;entryY=0.5;entryDx=0;entryDy=0;rounded=1;" parent="1" source="9" target="23" edge="1"><mxGeometry x="0.3846" relative="1" as="geometry"><Array as="points"><mxPoint x="-80" y="240"/><mxPoint x="-80" y="460"/></Array><mxPoint as="offset"/></mxGeometry></mxCell><mxCell id="9" value="/setup&lt;br&gt;crawl in progress" style="rounded=1;whiteSpace=wrap;html=1;" parent="1" vertex="1"><mxGeometry x="-210" y="220" width="110" height="40" as="geometry"/></mxCell><mxCell id="11" value="&lt;font style=&quot;font-size: 12px&quot;&gt;New blog&lt;/font&gt;" style="text;html=1;strokeColor=none;fillColor=none;align=left;verticalAlign=middle;whiteSpace=wrap;rounded=0;" parent="1" vertex="1"><mxGeometry x="-830" y="230" width="110" height="20" as="geometry"/></mxCell><mxCell id="13" value="&lt;font style=&quot;font-size: 18px&quot;&gt;Existing user&lt;/font&gt;" style="text;html=1;strokeColor=none;fillColor=none;align=left;verticalAlign=middle;whiteSpace=wrap;rounded=0;" parent="1" vertex="1"><mxGeometry x="-870" y="40" width="110" height="20" as="geometry"/></mxCell><mxCell id="20" value="10" style="edgeStyle=orthogonalEdgeStyle;orthogonalLoop=1;jettySize=auto;html=1;exitX=1;exitY=0.25;exitDx=0;exitDy=0;rounded=1;" parent="1" source="14" target="19" edge="1"><mxGeometry relative="1" as="geometry"/></mxCell><mxCell id="22" value="11" style="edgeStyle=orthogonalEdgeStyle;orthogonalLoop=1;jettySize=auto;html=1;exitX=1;exitY=0.75;exitDx=0;exitDy=0;entryX=0;entryY=0.5;entryDx=0;entryDy=0;rounded=1;" parent="1" source="14" target="21" edge="1"><mxGeometry relative="1" as="geometry"/></mxCell><mxCell id="14" value="/setup&lt;br&gt;failed" style="rounded=1;whiteSpace=wrap;html=1;" parent="1" vertex="1"><mxGeometry x="-50" y="330" width="110" height="40" as="geometry"/></mxCell><mxCell id="16" value="00" style="endArrow=none;html=1;exitX=1;exitY=0.5;exitDx=0;exitDy=0;" parent="1" source="4" edge="1"><mxGeometry x="-0.3333" width="50" height="50" relative="1" as="geometry"><mxPoint x="-220" y="220" as="sourcePoint"/><mxPoint x="-260" y="50" as="targetPoint"/><mxPoint as="offset"/></mxGeometry></mxCell><mxCell id="17" value="&lt;font style=&quot;font-size: 12px&quot;&gt;New failed blog&lt;/font&gt;" style="text;html=1;strokeColor=none;fillColor=none;align=left;verticalAlign=middle;whiteSpace=wrap;rounded=0;" parent="1" vertex="1"><mxGeometry x="-830" y="340" width="110" height="20" as="geometry"/></mxCell><mxCell id="19" value="/subs/add" style="rounded=1;whiteSpace=wrap;html=1;dashed=1;" parent="1" vertex="1"><mxGeometry x="100" y="300" width="70" height="40" as="geometry"/></mxCell><mxCell id="21" value="/subs" style="rounded=1;whiteSpace=wrap;html=1;dashed=1;" parent="1" vertex="1"><mxGeometry x="100" y="360" width="70" height="40" as="geometry"/></mxCell><mxCell id="30" value="02" style="edgeStyle=orthogonalEdgeStyle;curved=1;orthogonalLoop=1;jettySize=auto;html=1;endArrow=classic;endFill=1;" parent="1" source="23" target="29" edge="1"><mxGeometry relative="1" as="geometry"/></mxCell><mxCell id="38" value="00" style="edgeStyle=orthogonalEdgeStyle;orthogonalLoop=1;jettySize=auto;html=1;entryX=0;entryY=0.25;entryDx=0;entryDy=0;endArrow=classic;endFill=1;rounded=1;exitX=1;exitY=0.5;exitDx=0;exitDy=0;" parent="1" source="23" target="37" edge="1"><mxGeometry x="-0.9643" relative="1" as="geometry"><mxPoint x="160" y="420" as="sourcePoint"/><Array as="points"><mxPoint x="190" y="460"/><mxPoint x="190" y="40"/></Array><mxPoint as="offset"/></mxGeometry></mxCell><mxCell id="23" value="/setup&lt;br&gt;confirm" style="rounded=1;whiteSpace=wrap;html=1;" parent="1" vertex="1"><mxGeometry x="-50" y="440" width="110" height="40" as="geometry"/></mxCell><mxCell id="24" value="Voting blog" style="text;html=1;strokeColor=none;fillColor=none;align=left;verticalAlign=middle;whiteSpace=wrap;rounded=0;" parent="1" vertex="1"><mxGeometry x="-830" y="450" width="110" height="20" as="geometry"/></mxCell><mxCell id="33" value="04" style="edgeStyle=orthogonalEdgeStyle;orthogonalLoop=1;jettySize=auto;html=1;exitX=1;exitY=0.75;exitDx=0;exitDy=0;endArrow=classic;endFill=1;rounded=1;" parent="1" source="29" target="32" edge="1"><mxGeometry relative="1" as="geometry"/></mxCell><mxCell id="40" value="02" style="edgeStyle=orthogonalEdgeStyle;orthogonalLoop=1;jettySize=auto;html=1;exitX=1;exitY=0.25;exitDx=0;exitDy=0;endArrow=none;endFill=0;rounded=1;" parent="1" source="29" edge="1"><mxGeometry x="-0.375" relative="1" as="geometry"><mxPoint x="150" y="460" as="targetPoint"/><Array as="points"><mxPoint x="80" y="530"/><mxPoint x="80" y="460"/></Array><mxPoint as="offset"/></mxGeometry></mxCell><mxCell id="29" value="looks wrong" style="rounded=1;whiteSpace=wrap;html=1;" parent="1" vertex="1"><mxGeometry x="-50" y="520" width="110" height="40" as="geometry"/></mxCell><mxCell id="32" value="/subs" style="rounded=1;whiteSpace=wrap;html=1;dashed=1;" parent="1" vertex="1"><mxGeometry x="100" y="550" width="70" height="40" as="geometry"/></mxCell><mxCell id="42" value="00" style="edgeStyle=orthogonalEdgeStyle;curved=1;orthogonalLoop=1;jettySize=auto;html=1;endArrow=classic;endFill=1;" parent="1" source="37" target="41" edge="1"><mxGeometry relative="1" as="geometry"/></mxCell><mxCell id="37" value="/setup&lt;br&gt;set schedule" style="rounded=1;whiteSpace=wrap;html=1;" parent="1" vertex="1"><mxGeometry x="230" y="30" width="110" height="40" as="geometry"/></mxCell><mxCell id="44" value="00" style="edgeStyle=orthogonalEdgeStyle;orthogonalLoop=1;jettySize=auto;html=1;endArrow=classic;endFill=1;exitX=1;exitY=0.25;exitDx=0;exitDy=0;rounded=1;" parent="1" source="41" target="43" edge="1"><mxGeometry relative="1" as="geometry"/></mxCell><mxCell id="46" value="01" style="edgeStyle=orthogonalEdgeStyle;orthogonalLoop=1;jettySize=auto;html=1;exitX=1;exitY=0.75;exitDx=0;exitDy=0;entryX=0;entryY=0.5;entryDx=0;entryDy=0;endArrow=classic;endFill=1;rounded=1;" parent="1" source="41" target="45" edge="1"><mxGeometry relative="1" as="geometry"><mxPoint as="offset"/></mxGeometry></mxCell><mxCell id="41" value="/setup&lt;br&gt;here's feed" style="rounded=1;whiteSpace=wrap;html=1;" parent="1" vertex="1"><mxGeometry x="380" y="30" width="110" height="40" as="geometry"/></mxCell><mxCell id="43" value="/subs/:id" style="rounded=1;whiteSpace=wrap;html=1;" parent="1" vertex="1"><mxGeometry x="530" width="80" height="40" as="geometry"/></mxCell><mxCell id="45" value="/subs" style="rounded=1;whiteSpace=wrap;html=1;dashed=1;" parent="1" vertex="1"><mxGeometry x="530" y="60" width="80" height="40" as="geometry"/></mxCell><mxCell id="50" value="Confirmed blog" style="text;html=1;strokeColor=none;fillColor=none;align=left;verticalAlign=middle;whiteSpace=wrap;rounded=0;" parent="1" vertex="1"><mxGeometry x="-830" y="590" width="110" height="20" as="geometry"/></mxCell><mxCell id="51" value="Failed blog" style="text;html=1;strokeColor=none;fillColor=none;align=left;verticalAlign=middle;whiteSpace=wrap;rounded=0;" parent="1" vertex="1"><mxGeometry x="-830" y="690" width="110" height="20" as="geometry"/></mxCell><mxCell id="55" value="12" style="edgeStyle=orthogonalEdgeStyle;rounded=1;orthogonalLoop=1;jettySize=auto;html=1;exitX=1;exitY=0.25;exitDx=0;exitDy=0;entryX=0;entryY=0.5;entryDx=0;entryDy=0;endArrow=classic;endFill=1;strokeColor=#f0f0f0;" parent="1" source="52" target="53" edge="1"><mxGeometry relative="1" as="geometry"/></mxCell><mxCell id="56" value="13" style="edgeStyle=orthogonalEdgeStyle;rounded=1;orthogonalLoop=1;jettySize=auto;html=1;exitX=1;exitY=0.75;exitDx=0;exitDy=0;entryX=0;entryY=0.5;entryDx=0;entryDy=0;endArrow=classic;endFill=1;strokeColor=#f0f0f0;" parent="1" source="52" target="54" edge="1"><mxGeometry relative="1" as="geometry"/></mxCell><mxCell id="52" value="/blogs/:id/unsupported" style="rounded=1;whiteSpace=wrap;html=1;" parent="1" vertex="1"><mxGeometry x="-240" y="710" width="150" height="40" as="geometry"/></mxCell><mxCell id="53" value="/subs/add" style="rounded=1;whiteSpace=wrap;html=1;dashed=1;" parent="1" vertex="1"><mxGeometry x="-50" y="680" width="70" height="40" as="geometry"/></mxCell><mxCell id="54" value="/subs" style="rounded=1;whiteSpace=wrap;html=1;dashed=1;" parent="1" vertex="1"><mxGeometry x="-50" y="740" width="70" height="40" as="geometry"/></mxCell><mxCell id="59" value="20" style="edgeStyle=orthogonalEdgeStyle;rounded=0;orthogonalLoop=1;jettySize=auto;html=1;" parent="1" target="65" edge="1"><mxGeometry relative="1" as="geometry"><mxPoint x="-590" y="920" as="sourcePoint"/></mxGeometry></mxCell><mxCell id="60" value="/" style="rounded=1;whiteSpace=wrap;html=1;" parent="1" vertex="1"><mxGeometry x="-670" y="900" width="80" height="40" as="geometry"/></mxCell><mxCell id="62" value="20" style="edgeStyle=orthogonalEdgeStyle;orthogonalLoop=1;jettySize=auto;html=1;entryX=0;entryY=0.5;entryDx=0;entryDy=0;rounded=1;" parent="1" target="71" edge="1"><mxGeometry x="0.8095" relative="1" as="geometry"><mxPoint x="-260" y="920" as="sourcePoint"/><Array as="points"><mxPoint x="-230" y="920"/><mxPoint x="-230" y="1080"/></Array><mxPoint as="offset"/></mxGeometry></mxCell><mxCell id="63" value="21" style="edgeStyle=orthogonalEdgeStyle;orthogonalLoop=1;jettySize=auto;html=1;endArrow=none;endFill=0;rounded=1;entryX=0;entryY=0.5;entryDx=0;entryDy=0;" parent="1" target="82" edge="1"><mxGeometry x="0.4242" relative="1" as="geometry"><mxPoint x="-270" y="920" as="sourcePoint"/><mxPoint x="-210" y="1290" as="targetPoint"/><Array as="points"><mxPoint x="-240" y="920"/><mxPoint x="-240" y="1360"/></Array><mxPoint as="offset"/></mxGeometry></mxCell><mxCell id="64" value="32" style="edgeStyle=orthogonalEdgeStyle;rounded=1;orthogonalLoop=1;jettySize=auto;html=1;entryX=0;entryY=0.5;entryDx=0;entryDy=0;endArrow=classic;endFill=1;strokeColor=#f0f0f0;" parent="1" target="93" edge="1"><mxGeometry x="0.9481" relative="1" as="geometry"><mxPoint x="-290" y="920" as="sourcePoint"/><Array as="points"><mxPoint x="-260" y="920"/><mxPoint x="-260" y="1650"/></Array><mxPoint as="offset"/></mxGeometry></mxCell><mxCell id="103" value="23" style="edgeStyle=orthogonalEdgeStyle;rounded=1;orthogonalLoop=1;jettySize=auto;html=1;entryX=0;entryY=0.5;entryDx=0;entryDy=0;endArrow=classic;endFill=1;strokeColor=#f0f0f0;" parent="1" target="102" edge="1"><mxGeometry x="0.8857" relative="1" as="geometry"><Array as="points"><mxPoint x="-300" y="920"/><mxPoint x="-250" y="920"/><mxPoint x="-250" y="1530"/></Array><mxPoint as="offset"/><mxPoint x="-300" y="920" as="sourcePoint"/></mxGeometry></mxCell><mxCell id="109" value="41" style="edgeStyle=orthogonalEdgeStyle;rounded=1;orthogonalLoop=1;jettySize=auto;html=1;entryX=0;entryY=0.75;entryDx=0;entryDy=0;endArrow=classic;endFill=1;strokeColor=#f0f0f0;dashed=1;" parent="1" target="105" edge="1"><mxGeometry x="0.1579" relative="1" as="geometry"><mxPoint x="-300" y="920" as="sourcePoint"/><Array as="points"><mxPoint x="-270" y="920"/><mxPoint x="-270" y="1770"/></Array><mxPoint as="offset"/></mxGeometry></mxCell><mxCell id="65" value="/subs/add" style="rounded=1;whiteSpace=wrap;html=1;" parent="1" vertex="1"><mxGeometry x="-470" y="900" width="80" height="40" as="geometry"/></mxCell><mxCell id="66" value="31" style="edgeStyle=orthogonalEdgeStyle;orthogonalLoop=1;jettySize=auto;html=1;exitX=1;exitY=0.25;exitDx=0;exitDy=0;endArrow=none;endFill=0;rounded=1;" parent="1" source="127" edge="1"><mxGeometry x="-0.0909" relative="1" as="geometry"><mxPoint x="-290" y="920" as="targetPoint"/><Array as="points"><mxPoint x="-310" y="990"/><mxPoint x="-310" y="920"/></Array><mxPoint as="offset"/><mxPoint x="-350" y="1000" as="sourcePoint"/></mxGeometry></mxCell><mxCell id="69" value="30" style="edgeStyle=orthogonalEdgeStyle;orthogonalLoop=1;jettySize=auto;html=1;entryX=0;entryY=0.5;entryDx=0;entryDy=0;rounded=1;" parent="1" source="71" target="76" edge="1"><mxGeometry x="0.7898" relative="1" as="geometry"><Array as="points"><mxPoint x="-70" y="1080"/><mxPoint x="-70" y="1221"/></Array><mxPoint as="offset"/></mxGeometry></mxCell><mxCell id="70" value="20" style="edgeStyle=orthogonalEdgeStyle;orthogonalLoop=1;jettySize=auto;html=1;exitX=1;exitY=0.5;exitDx=0;exitDy=0;entryX=0;entryY=0.5;entryDx=0;entryDy=0;rounded=1;" parent="1" source="71" target="82" edge="1"><mxGeometry x="0.5625" relative="1" as="geometry"><Array as="points"><mxPoint x="-80" y="1080"/><mxPoint x="-80" y="1360"/></Array><mxPoint as="offset"/></mxGeometry></mxCell><mxCell id="71" value="/setup&lt;br&gt;crawl in progress" style="rounded=1;whiteSpace=wrap;html=1;" parent="1" vertex="1"><mxGeometry x="-210" y="1060" width="110" height="40" as="geometry"/></mxCell><mxCell id="72" value="&lt;font style=&quot;font-size: 12px&quot;&gt;New blog&lt;/font&gt;" style="text;html=1;strokeColor=none;fillColor=none;align=left;verticalAlign=middle;whiteSpace=wrap;rounded=0;" parent="1" vertex="1"><mxGeometry x="-830" y="1070" width="110" height="20" as="geometry"/></mxCell><mxCell id="73" value="&lt;font style=&quot;font-size: 18px&quot;&gt;New user&lt;/font&gt;" style="text;html=1;strokeColor=none;fillColor=none;align=left;verticalAlign=middle;whiteSpace=wrap;rounded=0;" parent="1" vertex="1"><mxGeometry x="-870" y="905" width="110" height="20" as="geometry"/></mxCell><mxCell id="74" value="30" style="edgeStyle=orthogonalEdgeStyle;orthogonalLoop=1;jettySize=auto;html=1;exitX=1;exitY=0.5;exitDx=0;exitDy=0;rounded=1;" parent="1" source="76" target="79" edge="1"><mxGeometry relative="1" as="geometry"/></mxCell><mxCell id="75" value="31" style="edgeStyle=orthogonalEdgeStyle;orthogonalLoop=1;jettySize=auto;html=1;exitX=1;exitY=0.75;exitDx=0;exitDy=0;entryX=0;entryY=0.5;entryDx=0;entryDy=0;rounded=1;" parent="1" source="76" target="80" edge="1"><mxGeometry relative="1" as="geometry"/></mxCell><mxCell id="99" value="40" style="edgeStyle=orthogonalEdgeStyle;rounded=1;orthogonalLoop=1;jettySize=auto;html=1;exitX=1;exitY=0.25;exitDx=0;exitDy=0;entryX=0;entryY=0.5;entryDx=0;entryDy=0;endArrow=classic;endFill=1;strokeColor=#f0f0f0;dashed=1;" parent="1" source="76" target="98" edge="1"><mxGeometry relative="1" as="geometry"/></mxCell><mxCell id="76" value="/setup&lt;br&gt;failed" style="rounded=1;whiteSpace=wrap;html=1;" parent="1" vertex="1"><mxGeometry x="-50" y="1200.5" width="110" height="40" as="geometry"/></mxCell><mxCell id="77" value="20" style="endArrow=none;html=1;exitX=1;exitY=0.5;exitDx=0;exitDy=0;" parent="1" source="65" edge="1"><mxGeometry x="-0.5" width="50" height="50" relative="1" as="geometry"><mxPoint x="-220" y="1090" as="sourcePoint"/><mxPoint x="-260" y="920" as="targetPoint"/><mxPoint as="offset"/></mxGeometry></mxCell><mxCell id="78" value="&lt;font style=&quot;font-size: 12px&quot;&gt;New failed blog&lt;/font&gt;" style="text;html=1;strokeColor=none;fillColor=none;align=left;verticalAlign=middle;whiteSpace=wrap;rounded=0;" parent="1" vertex="1"><mxGeometry x="-830" y="1210.5" width="110" height="20" as="geometry"/></mxCell><mxCell id="79" value="/subs/add" style="rounded=1;whiteSpace=wrap;html=1;dashed=1;" parent="1" vertex="1"><mxGeometry x="100" y="1200.5" width="70" height="40" as="geometry"/></mxCell><mxCell id="80" value="/" style="rounded=1;whiteSpace=wrap;html=1;dashed=1;" parent="1" vertex="1"><mxGeometry x="100" y="1260.5" width="70" height="40" as="geometry"/></mxCell><mxCell id="81" value="22" style="edgeStyle=orthogonalEdgeStyle;curved=1;orthogonalLoop=1;jettySize=auto;html=1;endArrow=classic;endFill=1;" parent="1" source="82" target="86" edge="1"><mxGeometry relative="1" as="geometry"/></mxCell><mxCell id="101" value="20" style="edgeStyle=orthogonalEdgeStyle;rounded=1;orthogonalLoop=1;jettySize=auto;html=1;exitX=1;exitY=0.5;exitDx=0;exitDy=0;entryX=0;entryY=0.5;entryDx=0;entryDy=0;endArrow=classic;endFill=1;strokeColor=#f0f0f0;" parent="1" source="82" target="100" edge="1"><mxGeometry x="-0.9672" relative="1" as="geometry"><Array as="points"><mxPoint x="190" y="1360"/><mxPoint x="190" y="920"/></Array><mxPoint as="offset"/></mxGeometry></mxCell><mxCell id="82" value="/setup&lt;br&gt;confirm" style="rounded=1;whiteSpace=wrap;html=1;" parent="1" vertex="1"><mxGeometry x="-50" y="1340" width="110" height="40" as="geometry"/></mxCell><mxCell id="83" value="Voting blog" style="text;html=1;strokeColor=none;fillColor=none;align=left;verticalAlign=middle;whiteSpace=wrap;rounded=0;" parent="1" vertex="1"><mxGeometry x="-830" y="1350" width="110" height="20" as="geometry"/></mxCell><mxCell id="84" value="24" style="edgeStyle=orthogonalEdgeStyle;orthogonalLoop=1;jettySize=auto;html=1;exitX=1;exitY=0.75;exitDx=0;exitDy=0;endArrow=classic;endFill=1;rounded=1;" parent="1" source="86" target="87" edge="1"><mxGeometry relative="1" as="geometry"/></mxCell><mxCell id="85" value="22" style="edgeStyle=orthogonalEdgeStyle;orthogonalLoop=1;jettySize=auto;html=1;exitX=1;exitY=0.25;exitDx=0;exitDy=0;endArrow=none;endFill=0;rounded=1;" parent="1" source="86" edge="1"><mxGeometry x="-0.3743" relative="1" as="geometry"><mxPoint x="150" y="1360" as="targetPoint"/><Array as="points"><mxPoint x="80" y="1430"/><mxPoint x="80" y="1360"/></Array><mxPoint as="offset"/></mxGeometry></mxCell><mxCell id="86" value="looks wrong" style="rounded=1;whiteSpace=wrap;html=1;" parent="1" vertex="1"><mxGeometry x="-50" y="1420" width="110" height="40" as="geometry"/></mxCell><mxCell id="87" value="/" style="rounded=1;whiteSpace=wrap;html=1;dashed=1;" parent="1" vertex="1"><mxGeometry x="100" y="1450" width="70" height="40" as="geometry"/></mxCell><mxCell id="89" value="Confirmed blog" style="text;html=1;strokeColor=none;fillColor=none;align=left;verticalAlign=middle;whiteSpace=wrap;rounded=0;" parent="1" vertex="1"><mxGeometry x="-830" y="1520" width="110" height="20" as="geometry"/></mxCell><mxCell id="90" value="Failed blog" style="text;html=1;strokeColor=none;fillColor=none;align=left;verticalAlign=middle;whiteSpace=wrap;rounded=0;" parent="1" vertex="1"><mxGeometry x="-830" y="1640" width="110" height="20" as="geometry"/></mxCell><mxCell id="91" value="32" style="edgeStyle=orthogonalEdgeStyle;rounded=1;orthogonalLoop=1;jettySize=auto;html=1;exitX=1;exitY=0.25;exitDx=0;exitDy=0;entryX=0;entryY=0.5;entryDx=0;entryDy=0;endArrow=classic;endFill=1;strokeColor=#f0f0f0;" parent="1" source="93" target="94" edge="1"><mxGeometry relative="1" as="geometry"/></mxCell><mxCell id="92" value="33" style="edgeStyle=orthogonalEdgeStyle;rounded=1;orthogonalLoop=1;jettySize=auto;html=1;exitX=1;exitY=0.75;exitDx=0;exitDy=0;entryX=0;entryY=0.5;entryDx=0;entryDy=0;endArrow=classic;endFill=1;strokeColor=#f0f0f0;" parent="1" source="93" target="95" edge="1"><mxGeometry relative="1" as="geometry"/></mxCell><mxCell id="93" value="/blogs/:id/unsupported" style="rounded=1;whiteSpace=wrap;html=1;" parent="1" vertex="1"><mxGeometry x="-240" y="1630" width="150" height="40" as="geometry"/></mxCell><mxCell id="94" value="/subs/add" style="rounded=1;whiteSpace=wrap;html=1;dashed=1;" parent="1" vertex="1"><mxGeometry x="-50" y="1600" width="70" height="40" as="geometry"/></mxCell><mxCell id="95" value="/subs" style="rounded=1;whiteSpace=wrap;html=1;dashed=1;" parent="1" vertex="1"><mxGeometry x="-50" y="1660" width="70" height="40" as="geometry"/></mxCell><mxCell id="96" value="" style="line;strokeWidth=2;html=1;dashed=1;" parent="1" vertex="1"><mxGeometry x="-910" y="820" width="1550" height="10" as="geometry"/></mxCell><mxCell id="97" value="" style="line;strokeWidth=2;direction=south;html=1;dashed=1;" parent="1" vertex="1"><mxGeometry x="-720" y="-40" width="10" height="1890" as="geometry"/></mxCell><mxCell id="98" value="/" style="rounded=1;whiteSpace=wrap;html=1;dashed=1;" parent="1" vertex="1"><mxGeometry x="100" y="1139.5" width="70" height="40" as="geometry"/></mxCell><mxCell id="107" value="43" style="edgeStyle=orthogonalEdgeStyle;rounded=1;orthogonalLoop=1;jettySize=auto;html=1;exitX=1;exitY=0.75;exitDx=0;exitDy=0;entryX=0;entryY=0.25;entryDx=0;entryDy=0;dashed=1;endArrow=classic;endFill=1;strokeColor=#f0f0f0;" parent="1" source="100" target="105" edge="1"><mxGeometry x="-0.9302" relative="1" as="geometry"><mxPoint as="offset"/></mxGeometry></mxCell><mxCell id="108" value="20" style="edgeStyle=orthogonalEdgeStyle;rounded=1;orthogonalLoop=1;jettySize=auto;html=1;exitX=1;exitY=0.25;exitDx=0;exitDy=0;entryX=0;entryY=0.75;entryDx=0;entryDy=0;endArrow=classic;endFill=1;strokeColor=#f0f0f0;" parent="1" source="100" target="37" edge="1"><mxGeometry x="-0.9381" relative="1" as="geometry"><Array as="points"><mxPoint x="350" y="910"/><mxPoint x="350" y="880"/><mxPoint x="210" y="880"/><mxPoint x="210" y="60"/></Array><mxPoint as="offset"/></mxGeometry></mxCell><mxCell id="100" value="/signup" style="rounded=1;whiteSpace=wrap;html=1;" parent="1" vertex="1"><mxGeometry x="220" y="900" width="110" height="40" as="geometry"/></mxCell><mxCell id="104" value="23" style="edgeStyle=orthogonalEdgeStyle;rounded=1;orthogonalLoop=1;jettySize=auto;html=1;exitX=1;exitY=0.25;exitDx=0;exitDy=0;entryX=0;entryY=0.75;entryDx=0;entryDy=0;endArrow=classic;endFill=1;strokeColor=#f0f0f0;" parent="1" source="102" target="100" edge="1"><mxGeometry x="-0.956" relative="1" as="geometry"><Array as="points"><mxPoint x="200" y="1520"/><mxPoint x="200" y="930"/></Array><mxPoint as="offset"/></mxGeometry></mxCell><mxCell id="106" value="42" style="edgeStyle=orthogonalEdgeStyle;rounded=1;orthogonalLoop=1;jettySize=auto;html=1;exitX=1;exitY=0.75;exitDx=0;exitDy=0;entryX=0;entryY=0.5;entryDx=0;entryDy=0;endArrow=classic;endFill=1;strokeColor=#f0f0f0;dashed=1;" parent="1" source="102" target="105" edge="1"><mxGeometry x="-0.942" relative="1" as="geometry"><Array as="points"><mxPoint x="200" y="1540"/><mxPoint x="200" y="1760"/></Array><mxPoint as="offset"/></mxGeometry></mxCell><mxCell id="102" value="/setup&lt;br&gt;presenting goods" style="rounded=1;whiteSpace=wrap;html=1;" parent="1" vertex="1"><mxGeometry x="-210" y="1510" width="110" height="40" as="geometry"/></mxCell><mxCell id="111" value="41" style="edgeStyle=orthogonalEdgeStyle;rounded=1;orthogonalLoop=1;jettySize=auto;html=1;exitX=1;exitY=0.25;exitDx=0;exitDy=0;endArrow=classic;endFill=1;strokeColor=#f0f0f0;" parent="1" source="105" target="110" edge="1"><mxGeometry relative="1" as="geometry"/></mxCell><mxCell id="113" value="41" style="edgeStyle=orthogonalEdgeStyle;rounded=1;orthogonalLoop=1;jettySize=auto;html=1;exitX=1;exitY=0.75;exitDx=0;exitDy=0;entryX=0;entryY=0.5;entryDx=0;entryDy=0;endArrow=classic;endFill=1;strokeColor=#f0f0f0;" parent="1" source="105" target="112" edge="1"><mxGeometry relative="1" as="geometry"/></mxCell><mxCell id="105" value="/" style="rounded=1;whiteSpace=wrap;html=1;" parent="1" vertex="1"><mxGeometry x="370" y="1740" width="80" height="40" as="geometry"/></mxCell><mxCell id="110" value="/setup&lt;br&gt;presenting goods" style="rounded=1;whiteSpace=wrap;html=1;dashed=1;" parent="1" vertex="1"><mxGeometry x="490" y="1710" width="110" height="40" as="geometry"/></mxCell><mxCell id="112" value="/&lt;br&gt;discard" style="rounded=1;whiteSpace=wrap;html=1;dashed=1;" parent="1" vertex="1"><mxGeometry x="490" y="1770" width="110" height="40" as="geometry"/></mxCell><mxCell id="120" value="12" style="edgeStyle=orthogonalEdgeStyle;rounded=1;orthogonalLoop=1;jettySize=auto;html=1;exitX=1;exitY=0.5;exitDx=0;exitDy=0;entryX=0;entryY=0.5;entryDx=0;entryDy=0;" edge="1" parent="1" source="116" target="6"><mxGeometry relative="1" as="geometry"/></mxCell><mxCell id="116" value="no feeds" style="rounded=1;whiteSpace=wrap;html=1;" vertex="1" parent="1"><mxGeometry x="-530" y="110" width="80" height="40" as="geometry"/></mxCell><mxCell id="122" value="12" style="edgeStyle=orthogonalEdgeStyle;rounded=1;orthogonalLoop=1;jettySize=auto;html=1;exitX=1;exitY=0.75;exitDx=0;exitDy=0;entryX=0.75;entryY=1;entryDx=0;entryDy=0;" edge="1" parent="1" source="116" target="116"><mxGeometry x="-0.2727" relative="1" as="geometry"><Array as="points"><mxPoint x="-430" y="140"/><mxPoint x="-430" y="170"/><mxPoint x="-470" y="170"/></Array><mxPoint as="offset"/></mxGeometry></mxCell><mxCell id="124" value="31" style="edgeStyle=orthogonalEdgeStyle;rounded=1;orthogonalLoop=1;jettySize=auto;html=1;exitX=0.75;exitY=1;exitDx=0;exitDy=0;" edge="1" parent="1" target="127" source="65"><mxGeometry relative="1" as="geometry"><mxPoint x="-410" y="940" as="sourcePoint"/></mxGeometry></mxCell><mxCell id="125" value="32" style="edgeStyle=orthogonalEdgeStyle;rounded=1;orthogonalLoop=1;jettySize=auto;html=1;exitX=0.25;exitY=1;exitDx=0;exitDy=0;entryX=0.5;entryY=0;entryDx=0;entryDy=0;" edge="1" parent="1" target="130" source="65"><mxGeometry relative="1" as="geometry"><mxPoint x="-450" y="940" as="sourcePoint"/></mxGeometry></mxCell><mxCell id="126" value="32" style="edgeStyle=orthogonalEdgeStyle;rounded=1;orthogonalLoop=1;jettySize=auto;html=1;exitX=1;exitY=0.5;exitDx=0;exitDy=0;entryX=0;entryY=0.5;entryDx=0;entryDy=0;" edge="1" parent="1" source="127" target="130"><mxGeometry x="0.05" relative="1" as="geometry"><Array as="points"><mxPoint x="-300" y="1000"/><mxPoint x="-300" y="1050"/><mxPoint x="-550" y="1050"/><mxPoint x="-550" y="1000"/></Array><mxPoint as="offset"/></mxGeometry></mxCell><mxCell id="127" value="discover feeds" style="rounded=1;whiteSpace=wrap;html=1;" vertex="1" parent="1"><mxGeometry x="-410" y="980" width="80" height="40" as="geometry"/></mxCell><mxCell id="128" value="32" style="edgeStyle=orthogonalEdgeStyle;orthogonalLoop=1;jettySize=auto;html=1;exitX=1;exitY=0.75;exitDx=0;exitDy=0;entryX=0.75;entryY=1;entryDx=0;entryDy=0;rounded=1;" edge="1" parent="1" source="127" target="127"><mxGeometry x="-0.2727" relative="1" as="geometry"><Array as="points"><mxPoint x="-310" y="1010"/><mxPoint x="-310" y="1040"/><mxPoint x="-350" y="1040"/></Array><mxPoint as="offset"/></mxGeometry></mxCell><mxCell id="129" value="32" style="edgeStyle=orthogonalEdgeStyle;rounded=1;orthogonalLoop=1;jettySize=auto;html=1;exitX=1;exitY=0.5;exitDx=0;exitDy=0;entryX=0;entryY=0.5;entryDx=0;entryDy=0;" edge="1" parent="1" source="130" target="127"><mxGeometry relative="1" as="geometry"/></mxCell><mxCell id="130" value="no feeds" style="rounded=1;whiteSpace=wrap;html=1;" vertex="1" parent="1"><mxGeometry x="-530" y="980" width="80" height="40" as="geometry"/></mxCell><mxCell id="131" value="32" style="edgeStyle=orthogonalEdgeStyle;rounded=1;orthogonalLoop=1;jettySize=auto;html=1;exitX=1;exitY=0.75;exitDx=0;exitDy=0;entryX=0.75;entryY=1;entryDx=0;entryDy=0;" edge="1" parent="1" source="130" target="130"><mxGeometry x="-0.2727" relative="1" as="geometry"><Array as="points"><mxPoint x="-430" y="1010"/><mxPoint x="-430" y="1040"/><mxPoint x="-470" y="1040"/></Array><mxPoint as="offset"/></mxGeometry></mxCell></root></mxGraphModel></diagram></mxfile>